<svg width="92" height="28" viewBox="0 0 92 28" fill="none" xmlns="http://www.w3.org/2000/svg">
<rect width="64" height="27" transform="translate(28 1)" fill="white" fill-opacity="0.01"/>
<path d="M32.4654 23V6.2H38.8494C40.4334 6.2 41.6974 6.584 42.6414 7.352C43.6014 8.104 44.0814 9.16 44.0814 10.52C44.0814 11.256 43.8734 11.928 43.4574 12.536C43.0414 13.128 42.5454 13.552 41.9694 13.808C42.8494 14.128 43.5534 14.648 44.0814 15.368C44.6094 16.072 44.8734 16.968 44.8734 18.056C44.8734 19.592 44.3534 20.8 43.3134 21.68C42.2894 22.56 40.8974 23 39.1374 23H32.4654ZM35.2734 12.896H38.6814C40.4894 12.896 41.3934 12.168 41.3934 10.712C41.3934 9.24 40.4814 8.504 38.6574 8.504H35.2734V12.896ZM35.2734 20.528H38.8014C41.0254 20.528 42.1374 19.664 42.1374 17.936C42.1374 16.192 41.0254 15.32 38.8014 15.32H35.2734V20.528ZM47.1985 23V6.008H49.8145V23H47.1985ZM57.4253 10.712C58.9933 10.712 60.2493 11.136 61.1933 11.984C62.1373 12.816 62.6093 13.976 62.6093 15.464V23H60.0413V21.152C59.6893 21.76 59.1693 22.256 58.4813 22.64C57.7933 23.008 57.0493 23.192 56.2493 23.192C55.0493 23.192 54.0732 22.856 53.3213 22.184C52.5693 21.512 52.1933 20.656 52.1933 19.616C52.1933 17.312 54.0493 15.968 57.7613 15.584L60.0413 15.344V15.176C60.0413 14.44 59.8013 13.856 59.3213 13.424C58.8573 12.992 58.2253 12.776 57.4253 12.776C56.6893 12.776 56.0813 12.984 55.6013 13.4C55.1213 13.8 54.8413 14.36 54.7613 15.08L52.4093 14.648C52.6013 13.464 53.1613 12.512 54.0893 11.792C55.0173 11.072 56.1293 10.712 57.4253 10.712ZM56.7773 21.176C57.7853 21.176 58.5773 20.864 59.1533 20.24C59.7293 19.616 60.0253 18.8 60.0413 17.792V17.288L57.7373 17.552C55.7533 17.776 54.7613 18.44 54.7613 19.544C54.7613 20.024 54.9453 20.416 55.3133 20.72C55.6813 21.024 56.1693 21.176 56.7773 21.176ZM64.8164 23V21.008L71.7284 13.136H65.2244V10.904H74.9924V12.896L68.1284 20.768H75.0884V23H64.8164ZM88.294 16.496C88.294 16.928 88.278 17.288 88.246 17.576H79.006C79.118 18.616 79.486 19.44 80.11 20.048C80.75 20.656 81.55 20.96 82.51 20.96C83.31 20.96 83.974 20.784 84.502 20.432C85.03 20.064 85.374 19.552 85.534 18.896L88.006 19.52C87.686 20.688 87.038 21.592 86.062 22.232C85.086 22.872 83.886 23.192 82.462 23.192C80.622 23.192 79.158 22.584 78.07 21.368C76.982 20.136 76.438 18.664 76.438 16.952C76.438 15.224 76.958 13.752 77.998 12.536C79.054 11.32 80.502 10.712 82.342 10.712C84.198 10.712 85.654 11.28 86.71 12.416C87.766 13.552 88.294 14.912 88.294 16.496ZM79.126 15.584H85.51C85.43 14.736 85.11 14.056 84.55 13.544C84.006 13.032 83.27 12.776 82.342 12.776C81.51 12.776 80.814 13.024 80.254 13.52C79.694 14 79.318 14.688 79.126 15.584Z" fill="#E0DFFE"/>
<path d="M18.64 10.3475C17.8652 8.29193 16.736 6.38811 15.3037 4.7225C12.825 1.85312 9 0 6 0C7.1875 4.375 5.1025 7.32 3.20063 10.2356C1.625 12.6475 0 15.1419 0 18C0 23.5138 4.48625 28 10 28C15.5138 28 20 23.5138 20 18C20 15.2938 19.5425 12.7194 18.64 10.3475ZM12.0206 24.1681C11.375 24.8556 10.5656 25 10 25C9.43437 25 8.625 24.8556 7.97937 24.1681C7.33375 23.4806 7 22.39 7 21C7 19.4288 7.55125 18.2325 8.08375 17.0763C8.48875 16.1969 9 15.375 9.02812 14.2956C9.73437 14.6631 10.5075 15.3525 11.1869 16.2506C12.3225 17.7506 12.9994 19.5269 12.9994 21.0006C13 22.39 12.6612 23.4856 12.0206 24.1681Z" fill="#5B5BD6"/>
</svg>
