<svg width="30" height="42" viewBox="0 0 30 42" fill="none" xmlns="http://www.w3.org/2000/svg">
<path d="M27.96 15.5212C26.7978 12.4379 25.104 9.58216 22.9556 7.08375C19.2375 2.77969 13.5 0 9 0C10.7812 6.5625 7.65375 10.98 4.80094 15.3534C2.4375 18.9713 0 22.7128 0 27C0 35.2706 6.72937 42 15 42C23.2706 42 30 35.2706 30 27C30 22.9406 29.3137 19.0791 27.96 15.5212ZM18.0309 36.2522C17.0625 37.2834 15.8484 37.5 15 37.5C14.1516 37.5 12.9375 37.2834 11.9691 36.2522C11.0006 35.2209 10.5 33.585 10.5 31.5C10.5 29.1431 11.3269 27.3488 12.1256 25.6144C12.7331 24.2953 13.5 23.0625 13.5422 21.4434C14.6016 21.9947 15.7612 23.0288 16.7803 24.3759C18.4837 26.6259 19.4991 29.2903 19.4991 31.5009C19.5 33.585 18.9919 35.2284 18.0309 36.2522Z" fill="#5B5BD6"/>
</svg>
