<svg width="22" height="18" viewBox="0 0 22 18" fill="none" xmlns="http://www.w3.org/2000/svg">
<path d="M15.4 12.1L18.7 8.8L17.545 7.6175L16.225 8.9375V5.5H14.575V8.9375L13.255 7.6175L12.1 8.8L15.4 12.1ZM2.2 17.6C1.595 17.6 1.07727 17.3848 0.6468 16.9543C0.216333 16.5238 0.000733333 16.0057 0 15.4V2.2C0 1.595 0.2156 1.07727 0.6468 0.6468C1.078 0.216333 1.59573 0.000733333 2.2 0H19.8C20.405 0 20.9231 0.2156 21.3543 0.6468C21.7855 1.078 22.0007 1.59573 22 2.2V15.4C22 16.005 21.7848 16.5231 21.3543 16.9543C20.9238 17.3855 20.4057 17.6007 19.8 17.6H2.2ZM3.85 12.1H5.5V7.15H6.6V10.45H8.25V7.15H9.35V12.1H11V6.6C11 6.28833 10.8944 6.02727 10.6832 5.8168C10.472 5.60633 10.2109 5.50073 9.9 5.5H4.95C4.63833 5.5 4.37727 5.6056 4.1668 5.8168C3.95633 6.028 3.85073 6.28907 3.85 6.6V12.1Z" fill="#272962"/>
</svg>
