<svg width="16" height="16" viewBox="0 0 16 16" fill="none" xmlns="http://www.w3.org/2000/svg">
<path d="M7.86223 0.0302188C7.83323 0.0470938 7.71185 0.221219 7.59223 0.417344C7.29223 0.909844 7.28898 0.910094 6.88598 0.486094C6.62373 0.210094 6.56035 0.159594 6.47598 0.160219C6.42098 0.160469 6.3516 0.179219 6.3216 0.201719C6.2916 0.224219 6.2071 0.403219 6.1336 0.599594C5.96535 1.04959 5.95735 1.06397 5.8641 1.08209C5.8066 1.09284 5.69623 1.03122 5.43123 0.840969C5.2356 0.700344 5.04373 0.585344 5.00485 0.585344C4.84348 0.585344 4.79798 0.673594 4.7211 1.13534C4.6236 1.72247 4.62685 1.72047 4.0976 1.48009C3.88385 1.38309 3.68135 1.30384 3.64723 1.30384C3.6131 1.30384 3.54823 1.34047 3.50348 1.38534C3.42198 1.46684 3.42185 1.46722 3.4441 1.91609L3.46635 2.36547L3.38135 2.41097C3.3061 2.45122 3.25423 2.44634 2.92085 2.36747C2.48585 2.26472 2.39385 2.26747 2.30585 2.38622L2.24135 2.47284L2.32785 2.84334C2.37535 3.04709 2.42098 3.24334 2.4296 3.27922C2.43798 3.31509 2.42335 3.37247 2.3971 3.40672C2.3536 3.46272 2.30748 3.46797 1.9046 3.46172C1.2231 3.45097 1.18448 3.50947 1.46585 4.12422C1.5556 4.31922 1.62898 4.49672 1.62898 4.51797C1.62898 4.63022 1.53935 4.67097 1.15473 4.73384C0.93948 4.76884 0.75248 4.79759 0.73898 4.79759C0.725605 4.79759 0.68523 4.82697 0.649355 4.86284C0.53223 4.97984 0.56548 5.08984 0.83098 5.46459C1.16173 5.93147 1.16123 5.93334 0.61473 6.14222C-0.00664538 6.37997 -0.0192704 6.43847 0.453855 6.88722C0.89448 7.30522 0.895105 7.29909 0.39623 7.61272C0.0182297 7.84997 0.0124797 7.85572 0.00285465 7.98447C-0.00877035 8.14109 -0.00602037 8.14384 0.445105 8.41947C0.891355 8.69197 0.891355 8.70022 0.45348 9.11447C-0.0175203 9.55997 -0.00302035 9.62497 0.618855 9.85959C1.16223 10.0646 1.16298 10.0671 0.831605 10.5338C0.643855 10.7985 0.58398 10.9088 0.58398 10.9905C0.58398 11.1433 0.663605 11.1823 1.13898 11.2622C1.53973 11.3297 1.62898 11.3693 1.62898 11.4798C1.62898 11.5026 1.55548 11.6813 1.4656 11.877C1.1861 12.4857 1.21798 12.5363 1.87935 12.5363C2.4956 12.5363 2.47923 12.5176 2.34648 13.0731C2.24648 13.4918 2.24485 13.5721 2.33548 13.6625C2.40473 13.732 2.53548 13.7242 2.94423 13.6263C3.2566 13.5518 3.31135 13.5467 3.38373 13.5853L3.46623 13.6296L3.4441 14.0788C3.42185 14.528 3.42198 14.5282 3.50348 14.6098C3.54823 14.6548 3.61398 14.6913 3.6491 14.6913C3.68423 14.6913 3.88698 14.6126 4.0996 14.5158C4.6271 14.2763 4.62385 14.2743 4.72123 14.8596C4.79835 15.3235 4.84335 15.4096 5.00798 15.4096C5.04885 15.4096 5.23673 15.2996 5.42548 15.1648C5.75723 14.9282 5.84323 14.8911 5.9316 14.9473C5.95435 14.9617 6.04285 15.1561 6.1281 15.3792C6.25348 15.7073 6.29935 15.793 6.36923 15.8262C6.50198 15.89 6.58423 15.8387 6.89648 15.4987C7.27348 15.088 7.28898 15.09 7.59673 15.5887C7.93673 16.1395 8.02473 16.1382 8.37323 15.5776C8.67348 15.0946 8.66998 15.0948 9.07585 15.5188C9.34548 15.8001 9.40285 15.8451 9.49373 15.8451C9.55173 15.8451 9.6211 15.8232 9.64748 15.7966C9.67423 15.77 9.76248 15.5733 9.84348 15.3596C9.9246 15.1458 10.0086 14.9596 10.0304 14.9458C10.1162 14.8913 10.2051 14.9296 10.5364 15.1648C10.7314 15.3033 10.9149 15.4098 10.9585 15.4098C11.1205 15.4098 11.179 15.2948 11.2462 14.843C11.3037 14.4577 11.3155 14.4207 11.3912 14.3823C11.4657 14.3446 11.5105 14.3573 11.86 14.5161C12.0726 14.6123 12.2754 14.6913 12.3105 14.6913C12.3456 14.6913 12.4125 14.6536 12.4585 14.6073L12.5425 14.5236L12.5195 14.0926C12.4974 13.6813 12.4995 13.6591 12.565 13.5997C12.6325 13.5387 12.6395 13.539 13.0169 13.6252C13.4739 13.7296 13.5591 13.7323 13.645 13.6465C13.7289 13.5627 13.728 13.5442 13.6132 13.0602C13.4845 12.517 13.4672 12.5365 14.0857 12.5365C14.5075 12.5365 14.5545 12.5303 14.6082 12.4711C14.698 12.372 14.6766 12.2583 14.4962 11.8737C14.4051 11.68 14.3312 11.5037 14.3319 11.4818C14.3349 11.3676 14.4247 11.3285 14.84 11.261C15.0941 11.2198 15.2841 11.1722 15.3186 11.141C15.434 11.0368 15.3916 10.9012 15.1282 10.5318C14.798 10.069 14.7995 10.0646 15.3281 9.86972C15.9611 9.63647 15.9792 9.55872 15.5055 9.10847C15.0667 8.69159 15.0665 8.69384 15.5471 8.39884C16.1281 8.04222 16.129 7.96184 15.5574 7.60697C15.0657 7.30197 15.0661 7.30622 15.5067 6.88784C15.9792 6.43872 15.9665 6.37997 15.3449 6.14222C14.7964 5.93234 14.7946 5.92722 15.128 5.46972C15.3265 5.19722 15.3757 5.10684 15.3757 5.01347C15.3757 4.85022 15.3025 4.81372 14.8212 4.73597C14.4192 4.67097 14.3307 4.63159 14.3307 4.51722C14.3307 4.49547 14.4042 4.32047 14.4941 4.12809C14.6699 3.75147 14.6946 3.60059 14.5951 3.51059C14.5416 3.46222 14.4701 3.45522 14.0867 3.46159C13.6857 3.46834 13.6345 3.46259 13.5789 3.40672C13.5181 3.34572 13.5189 3.33709 13.6136 2.94109C13.73 2.45609 13.7305 2.44422 13.6349 2.35434C13.5377 2.26309 13.4771 2.26459 13.0316 2.36947C12.707 2.44597 12.6532 2.45109 12.5795 2.41159L12.4957 2.36659L12.5189 1.91884L12.5421 1.47134L12.4584 1.38759C12.4122 1.34134 12.347 1.30384 12.313 1.30384C12.2792 1.30384 12.0775 1.38384 11.8651 1.48147C11.5104 1.64472 11.4722 1.65559 11.3955 1.61547C11.319 1.57547 11.3062 1.53584 11.2409 1.13684C11.1655 0.675219 11.1187 0.585344 10.9549 0.585344C10.916 0.585344 10.7232 0.700969 10.5266 0.842219C10.2036 1.07422 10.1604 1.09622 10.0799 1.06809C10.0132 1.04484 9.97448 0.994344 9.92723 0.868219C9.89223 0.775469 9.8251 0.596719 9.77798 0.471094C9.68273 0.217594 9.6296 0.160844 9.48698 0.160844C9.40735 0.160844 9.33535 0.218094 9.07698 0.486344C8.67073 0.908219 8.66935 0.908094 8.37073 0.418219C8.25135 0.222469 8.1266 0.0477188 8.09348 0.0299688C8.01885 -0.0100312 7.93098 -0.0100312 7.86223 0.0302188ZM8.23223 1.50497C8.58598 1.75672 8.39798 2.34872 7.96423 2.34872C7.54323 2.34872 7.33123 1.84159 7.63173 1.55372C7.80148 1.39122 8.0446 1.37134 8.23223 1.50497ZM7.7876 3.06834C8.01948 3.15647 8.1146 3.10359 8.6441 2.59334L9.04185 2.20959L9.21023 2.23209C9.73835 2.30209 10.7886 2.76334 11.3921 3.19034C11.9466 3.58284 12.6836 4.38209 12.9977 4.93159L13.0649 5.04934L12.7674 5.71984C12.6036 6.08859 12.4696 6.42897 12.4696 6.47647C12.4696 6.58622 12.5416 6.75984 12.6109 6.81722C12.6401 6.84159 12.918 6.97534 13.2282 7.11447L13.792 7.3676L13.8142 7.51109C13.843 7.69797 13.8467 8.15697 13.8207 8.28734L13.8004 8.38934H13.4785C13.1051 8.38934 13.134 8.35597 13.1137 8.81384C13.099 9.14584 13.0187 9.32934 12.8362 9.44822C12.5391 9.64209 12.0482 9.60697 11.84 9.37697C11.8081 9.34147 11.746 9.16384 11.7019 8.98197C11.5731 8.45022 11.4002 8.15197 11.0527 7.86134C10.943 7.76972 10.8534 7.68409 10.8534 7.67109C10.8534 7.65834 10.974 7.55672 11.1215 7.44572C11.6587 7.04072 11.9677 6.56922 12.0015 6.10234C12.0664 5.21159 11.3567 4.38147 10.3012 4.11234C10.051 4.04859 9.9441 4.04659 6.84823 4.04659C5.0911 4.04659 3.65323 4.03509 3.65323 4.02109C3.65323 3.98822 4.04385 3.60922 4.27385 3.41909C4.9056 2.89684 5.7261 2.48597 6.57598 2.26659L6.86973 2.19034L7.28723 2.61372C7.5171 2.84659 7.74223 3.05122 7.7876 3.06834ZM2.52973 5.79247C2.7221 5.91847 2.80098 6.23497 2.68723 6.42522C2.5116 6.71972 2.06648 6.7321 1.8906 6.44747C1.63485 6.03384 2.12748 5.52884 2.52973 5.79247ZM13.8637 5.80872C14.367 6.11547 13.977 6.87034 13.4382 6.63197C13.0786 6.47284 13.067 5.98122 13.4189 5.80197C13.5656 5.72697 13.7341 5.72972 13.8637 5.80872ZM4.0126 7.68747V9.56497H2.3526L2.28685 9.27934C2.15735 8.71684 2.10285 8.13484 2.13548 7.65822L2.15823 7.32335L2.72885 7.06747C3.08685 6.90709 3.3171 6.78472 3.34673 6.73934C3.47648 6.54134 3.46423 6.39997 3.28198 5.99772L3.19698 5.80997H4.01235L4.0126 7.68747ZM8.79098 5.89147C9.14635 5.98397 9.3341 6.17209 9.3346 6.43584C9.33485 6.62959 9.23898 6.75084 9.00085 6.85834C8.83235 6.93459 8.8056 6.93647 7.74298 6.94684L6.65723 6.95734V5.84234H7.62998C8.38973 5.84234 8.64398 5.85309 8.79098 5.89147ZM8.42423 8.58572C8.60048 8.63472 8.80873 8.78772 8.91548 8.94672C9.02773 9.11384 9.09335 9.33122 9.24885 10.0512C9.3801 10.66 9.46473 10.8587 9.70135 11.1177C9.99448 11.4385 9.92635 11.426 11.3906 11.426C12.0919 11.426 12.6654 11.4372 12.6654 11.451C12.6654 11.4756 12.1825 12.0465 12.1616 12.0465C12.1556 12.0465 11.9034 11.9937 11.6011 11.9291C10.7475 11.7468 10.7167 11.7682 10.5209 12.6831L10.3949 13.2708L10.2811 13.3268C10.0914 13.4206 9.47448 13.6133 9.15485 13.6793C8.62635 13.7881 8.05135 13.8246 7.54598 13.782C6.68435 13.7088 5.54348 13.3746 5.49885 13.182C5.48948 13.1411 5.43198 12.8766 5.3716 12.594C5.31098 12.3115 5.23735 12.0435 5.20785 11.9985C5.0666 11.783 4.9181 11.7697 4.26448 11.9142C4.01698 11.9692 3.80098 12.0137 3.78448 12.0137C3.75348 12.0137 3.2941 11.4826 3.2941 11.4468C3.2941 11.4356 4.3851 11.4226 5.7186 11.4181L8.14298 11.4098L8.15173 10.5486C8.15798 9.94047 8.14948 9.67397 8.12298 9.64234C8.09373 9.60684 7.93735 9.59759 7.3716 9.59759H6.65723V8.55259L7.48185 8.55272C7.9351 8.55297 8.35935 8.56772 8.42423 8.58572ZM4.68848 12.5025C5.07398 12.7375 4.8891 13.353 4.4331 13.3525C3.9656 13.3525 3.79223 12.7425 4.1906 12.4992C4.32248 12.4188 4.5541 12.4205 4.68848 12.5025ZM11.7485 12.5282C11.9375 12.6667 12.0004 12.9548 11.8834 13.147C11.5759 13.6512 10.8069 13.2503 11.0637 12.7196C11.19 12.459 11.5256 12.3648 11.7485 12.5282Z" fill="#FF6F31"/>
</svg>
